<svg width="40" height="40" viewBox="0 0 40 40" fill="none" xmlns="http://www.w3.org/2000/svg">
<rect width="40" height="40" rx="14" fill="#C70000"/>
<path d="M23.1898 14.306C23.1905 13.1681 22.9585 12.0115 22.4675 10.9042C22.0659 9.99847 21.5237 9.19903 20.8777 8.5202L14.7976 5.91272C14.4329 5.9125 14.0664 5.93617 13.7002 5.98467C16.5024 6.35434 19.0512 8.13117 20.2807 10.9042C22.159 15.1404 20.2476 20.097 16.0114 21.9752C15.2592 22.3088 14.4842 22.5228 13.7077 22.6255C15.1861 22.8206 16.7351 22.624 18.1982 21.9752C19.1372 21.5589 19.9619 20.9914 20.6565 20.3139L23.1898 14.306Z" fill="black" fill-opacity="0.2"/>
<path d="M9.08311 11.7395C9.53895 10.5574 9.47826 9.30371 9.01258 8.22584C8.13918 9.05578 7.43137 10.0874 6.96903 11.2863C6.573 12.3133 6.39292 13.3703 6.40593 14.4076C7.59276 13.9538 8.58993 13.0183 9.08311 11.7395ZM20.637 16.9235C20.1985 18.0606 20.238 19.264 20.6561 20.3134C21.4956 19.4959 22.1766 18.4889 22.6259 17.324C23.0088 16.3311 23.1896 15.3101 23.1895 14.3061C22.0579 14.7765 21.1128 15.6898 20.637 16.9235ZM17.8163 6.47673C16.8232 6.09377 15.802 5.91287 14.7977 5.91309C15.2565 7.08417 16.1861 8.06636 17.4521 8.55457C18.602 8.99799 19.8196 8.95223 20.8773 8.52078C20.0472 7.64716 19.0154 6.93913 17.8163 6.47673Z" fill="#EAF3F9"/>
<path d="M15.6292 6.47673C16.8283 6.93913 17.8601 7.64716 18.6902 8.52078C18.7819 8.62241 18.8852 8.74383 18.9853 8.86443C19.6329 8.88291 20.2773 8.76586 20.877 8.52078C20.0469 7.64716 19.0151 6.93913 17.816 6.47673C16.8229 6.09372 15.8016 5.91287 14.7974 5.91309C14.8414 6.02557 14.8899 6.1363 14.9425 6.24504C15.1746 6.31243 15.4037 6.38973 15.6292 6.47673Z" fill="#DEEDF8"/>
<path d="M12.2679 20.1084C11.0987 19.6575 9.85949 19.7124 8.78955 20.1643C9.60697 21.0035 10.6138 21.6844 11.7785 22.1335C12.8056 22.5296 13.8628 22.7096 14.9002 22.6966C14.4343 21.5492 13.5146 20.5892 12.2679 20.1084Z" fill="#EAF3F9"/>
<path d="M15.116 18.9425C17.6759 18.7653 19.6073 16.5465 19.4301 13.9867C19.2529 11.4268 17.0341 9.49535 14.4743 9.67255C11.9145 9.84976 9.98301 12.0686 10.1602 14.6284C10.3374 17.1882 12.5562 19.1197 15.116 18.9425Z" fill="white"/>
<path d="M32.0443 29.5253C32.7002 28.5954 33.1765 27.5162 33.4128 26.3282C33.6061 25.3565 33.6231 24.3906 33.4859 23.4637L30.0166 17.8306C29.0868 17.1749 28.0079 16.6987 26.8201 16.4625C25.8547 16.2705 24.8951 16.2526 23.9736 16.3868C24.1204 16.4081 24.2675 16.4333 24.4147 16.4625C28.9595 17.3664 31.9111 21.7834 31.0073 26.3283C30.2954 29.9076 27.4044 32.4988 23.9881 32.9966C24.8259 33.1185 25.6775 33.1123 26.5135 32.9782L32.0443 29.5253Z" fill="black" fill-opacity="0.2"/>
<path d="M21.9894 19.3034C23.0427 18.5995 23.7151 17.5396 23.9551 16.3903C22.7631 16.5659 21.5903 17.0016 20.522 17.7156C19.6067 18.3272 18.8509 19.0877 18.2642 19.9431C19.4957 20.2556 20.8497 20.065 21.9894 19.3034ZM28.4499 30.1951C27.4366 30.8722 26.776 31.8788 26.5134 32.9775C27.6705 32.7926 28.8072 32.3614 29.8453 31.6677C30.7301 31.0765 31.4659 30.3459 32.044 29.525C30.848 29.258 29.5493 29.4604 28.4499 30.1951Z" fill="#EAF3F9"/>
<path d="M29.5451 29.6552C28.9819 30.4232 28.2778 31.1079 27.4401 31.6677C27.2493 31.7952 27.0534 31.9149 26.853 32.0265C26.7058 32.3303 26.5921 32.6491 26.5137 32.9775C27.6708 32.7925 28.8075 32.3614 29.8456 31.6677C30.7304 31.0764 31.4662 30.3459 32.0442 29.5249C31.227 29.3425 30.3619 29.3793 29.5451 29.6552ZM32.1599 20.0299C31.5685 19.1449 30.8378 18.4089 30.0166 17.8308C29.7173 19.0524 29.9117 20.3907 30.6656 21.5189C31.3503 22.5437 32.3721 23.2074 33.4853 23.4637C33.3098 22.2715 32.874 21.0985 32.1599 20.0299Z" fill="#DEEDF8"/>
<path d="M19.7739 27.9796C19.0776 26.9376 18.0329 26.2689 16.8979 26.0222C17.083 27.1791 17.514 28.3155 18.2076 29.3534C18.8193 30.2686 19.5798 31.0246 20.4355 31.6113C20.7153 30.405 20.5162 29.0905 19.7739 27.9796Z" fill="#EAF3F9"/>
<path d="M28.4651 27.9768C30.2795 26.1624 30.2795 23.2207 28.4651 21.4063C26.6508 19.5919 23.709 19.5919 21.8946 21.4063C20.0802 23.2207 20.0802 26.1624 21.8946 27.9768C23.709 29.7912 26.6508 29.7912 28.4651 27.9768Z" fill="white"/>
<path d="M19.4195 12.2557C18.2894 9.70702 15.2965 8.55299 12.748 9.68296C11.9295 10.0459 11.2221 10.6198 10.6983 11.3459C10.6347 11.4341 10.6088 11.5439 10.6262 11.6513C10.6436 11.7586 10.703 11.8546 10.7912 11.9182C10.8795 11.9818 10.9893 12.0077 11.0967 11.9903C11.204 11.9728 11.3 11.9135 11.3636 11.8253C11.8023 11.2171 12.3948 10.7365 13.0803 10.4326C15.2154 9.48582 17.723 10.4527 18.6698 12.5881C19.6165 14.7234 18.6496 17.2308 16.5143 18.1775C15.4799 18.6362 14.3288 18.6645 13.2732 18.2574C12.2174 17.8503 11.3835 17.0564 10.9249 16.0221C10.5969 15.2839 10.4877 14.4672 10.6101 13.6688C10.6265 13.5613 10.5996 13.4517 10.5352 13.3641C10.4708 13.2765 10.3743 13.218 10.2668 13.2015C10.1593 13.1851 10.0497 13.212 9.96208 13.2764C9.87444 13.3408 9.81594 13.4373 9.79944 13.5448C9.65327 14.498 9.78368 15.4732 10.1752 16.3545C10.7226 17.5891 11.7181 18.5366 12.9782 19.0225C13.5688 19.2503 14.1844 19.3639 14.799 19.3639C15.4956 19.3639 16.1909 19.218 16.8468 18.9272C19.3953 17.7972 20.5495 14.8044 19.4195 12.2557Z" fill="black"/>
<path d="M13.4554 12.9157L13.9512 12.7188L15.4289 16.44C15.5075 16.638 15.7653 16.7476 15.9613 16.6698C16.0113 16.6499 16.057 16.6204 16.0956 16.5828C16.1342 16.5453 16.1651 16.5006 16.1864 16.4511C16.2078 16.4017 16.2192 16.3485 16.2199 16.2947C16.2207 16.2409 16.2109 16.1874 16.191 16.1373L14.562 12.0351C14.5219 11.934 14.4432 11.853 14.3434 11.8099C14.2435 11.7668 14.1307 11.7652 14.0296 11.8053L13.1528 12.1535C13.1027 12.1734 13.0571 12.2029 13.0184 12.2404C12.9798 12.2779 12.9489 12.3227 12.9276 12.3721C12.8845 12.472 12.8829 12.5848 12.923 12.6859C12.9631 12.787 13.0418 12.868 13.1416 12.9111C13.2415 12.9542 13.3543 12.9558 13.4554 12.9157Z" fill="black"/>
<path d="M33.8943 23.4329C33.6155 19.732 30.416 16.7595 26.9003 16.0603C25.7546 15.8324 24.5635 15.8343 23.4191 16.0701C23.784 14.2866 23.5802 12.4023 22.8423 10.738C21.8895 8.58911 20.1569 6.93989 17.9637 6.0941C15.7704 5.24835 13.3791 5.30729 11.2302 6.26007C6.85282 8.20096 4.81047 13.4926 6.75229 17.8721C7.61372 19.8148 9.18044 21.4064 11.1105 22.296C12.8041 23.0766 14.7352 23.3032 16.562 22.9283C15.7683 26.8104 17.6851 30.8431 21.2939 32.5577C23.9539 33.8216 26.5292 33.7641 28.868 32.6836C28.9169 32.661 28.9609 32.629 28.9974 32.5895C29.0339 32.5499 29.0623 32.5035 29.0809 32.453C29.0995 32.4025 29.1079 32.3488 29.1058 32.2949C29.1036 32.2411 29.0909 32.1883 29.0683 32.1394C29.0457 32.0905 29.0137 32.0466 28.9741 32.01C28.9346 31.9735 28.8882 31.9452 28.8377 31.9266C28.7356 31.889 28.6228 31.8935 28.5241 31.9391C28.072 32.1483 27.6014 32.3147 27.1183 32.4363C27.4363 31.6662 27.9751 31.0054 28.6779 30.5359C29.4606 30.0129 30.3684 29.7705 31.2894 29.8297C30.9777 30.2007 30.6326 30.5424 30.2585 30.8504C30.217 30.8846 30.1825 30.9267 30.1572 30.9742C30.1319 31.0217 30.1162 31.0737 30.111 31.1273C30.1058 31.1809 30.1112 31.235 30.1269 31.2865C30.1426 31.338 30.1683 31.3859 30.2025 31.4275C30.2367 31.4691 30.2788 31.5036 30.3263 31.5289C30.3738 31.5542 30.4259 31.5699 30.4795 31.5751C30.5331 31.5803 30.5872 31.5749 30.6387 31.5592C30.6902 31.5435 30.7381 31.5178 30.7796 31.4836C33.128 29.5511 34.3325 26.4449 33.8943 23.4329ZM30.3088 18.5761C31.6227 19.681 32.5564 21.1903 32.9529 22.8691C32.163 22.554 31.4858 22.0084 31.0065 21.2911C30.4706 20.489 30.2281 19.5275 30.3088 18.5761ZM23.3779 16.9187C23.0703 17.75 22.511 18.4618 21.7617 18.9625C20.9441 19.509 19.9631 19.75 18.9947 19.6555C20.1093 18.2905 21.6549 17.3217 23.3779 16.9187ZM21.0862 16.9077C21.4345 16.1031 22.0103 15.4413 22.7481 14.9896C22.7102 15.4335 22.635 15.8734 22.5233 16.3047C22.0275 16.463 21.5465 16.6648 21.0862 16.9077ZM17.6686 6.85925C18.577 7.20952 19.3983 7.71188 20.1048 8.33993C19.276 8.53865 18.4062 8.48306 17.5995 8.17198C16.6976 7.82412 15.9443 7.17568 15.4625 6.34886C16.2088 6.41233 16.9504 6.58224 17.6686 6.85925ZM7.35147 11.4337C7.70387 10.5199 8.21005 9.69437 8.84335 8.98498C9.0722 9.84335 9.02529 10.7494 8.70039 11.5919C8.3458 12.5113 7.68069 13.2745 6.83216 13.7548C6.88743 12.9698 7.06029 12.1888 7.35147 11.4337ZM11.4538 21.5513C10.771 21.2366 10.1362 20.8269 9.56822 20.3343C10.4107 20.1218 11.297 20.1734 12.1204 20.4909C13.0175 20.8369 13.749 21.4565 14.2303 22.2663C13.2693 22.197 12.3288 21.9548 11.4538 21.5513ZM15.164 22.2786C14.6106 21.113 13.6225 20.1914 12.4154 19.7258C11.278 19.2872 10.0403 19.2736 8.89928 19.6816C8.32144 19.0474 7.84962 18.3241 7.50197 17.5397C7.09457 16.6209 6.86742 15.6532 6.82144 14.6786C8.03118 14.1339 8.98598 13.1302 9.46555 11.887C9.90952 10.7356 9.91865 9.48493 9.49687 8.33408C10.1048 7.79564 10.7989 7.34838 11.5626 7.00976C12.5139 6.58798 13.5176 6.35941 14.5273 6.32507C15.0751 7.51923 16.0738 8.4625 17.3044 8.93709C18.4072 9.36236 19.6474 9.38554 20.7648 9.00078C21.3048 9.60964 21.7532 10.3051 22.0925 11.0704C22.508 12.0086 22.7389 13.018 22.7727 14.0435C21.6102 14.6027 20.7216 15.5638 20.2541 16.776C20.1546 17.0341 20.0762 17.2999 20.0198 17.5708C18.5036 18.6695 17.3588 20.2467 16.7941 22.0328C16.2608 22.1712 15.7144 22.2535 15.164 22.2786ZM20.136 30.871C18.8069 29.7816 17.8552 28.2829 17.4381 26.6101C18.2488 26.9216 18.9431 27.474 19.4331 28.2074C19.9668 29.006 20.2082 29.9327 20.136 30.871ZM33.0109 26.2482C32.8098 27.2595 32.4137 28.218 31.8545 29.0704C30.5824 28.8582 29.3025 29.1323 28.2223 29.8541C27.2381 30.5118 26.5233 31.4835 26.1874 32.6117C24.3516 32.8441 22.451 32.4167 20.8923 31.42C21.1106 30.1489 20.8335 28.827 20.1149 27.7517C19.4376 26.7381 18.4336 26.0142 17.2657 25.6908C17.0331 23.859 17.4588 21.961 18.4524 20.4048C19.7473 20.6536 21.1208 20.3771 22.2173 19.6443C23.2424 18.9594 23.9697 17.9434 24.288 16.761C25.0862 16.6703 25.9114 16.6997 26.7404 16.8646C27.776 17.0705 28.725 17.4695 29.5576 18.0165C29.3193 19.3069 29.5928 20.6513 30.3247 21.7468C30.9891 22.741 31.9719 23.4589 33.1138 23.7906C33.2053 24.5904 33.1762 25.4173 33.0109 26.2482Z" fill="black"/>
<path d="M26.1703 19.7327C24.8455 19.4693 23.4977 19.7375 22.3749 20.4878C21.252 21.2382 20.4885 22.3809 20.2252 23.7055C19.9617 25.03 20.2299 26.3779 20.9802 27.5008C21.7306 28.6238 22.8734 29.3872 24.1979 29.6506C24.5261 29.7161 24.8599 29.7491 25.1946 29.7493C26.1841 29.7493 27.1519 29.4578 27.9932 28.8955C29.1161 28.1452 29.8796 27.0025 30.143 25.6779C30.4064 24.3533 30.1383 23.0054 29.3879 21.8825C28.6376 20.7596 27.4949 19.9961 26.1703 19.7327ZM29.3387 25.5179C29.1181 26.6276 28.4784 27.585 27.5377 28.2137C26.5969 28.8424 25.4678 29.0671 24.3579 28.8463C23.2481 28.6256 22.2907 27.986 21.662 27.0452C21.0334 26.1045 20.8087 24.9752 21.0295 23.8654C21.2501 22.7557 21.8897 21.7983 22.8305 21.1696C23.5355 20.6985 24.3462 20.4543 25.1753 20.4543C25.4527 20.4543 25.7321 20.4816 26.0103 20.537C27.1201 20.7577 28.0775 21.3973 28.7061 22.3381C29.3348 23.2789 29.5595 24.4081 29.3387 25.5179Z" fill="black"/>
<path d="M26.7752 22.4128L25.1842 22.0066C25.0901 21.9826 24.9905 21.9928 24.9032 22.0353C24.8158 22.0779 24.7465 22.15 24.7073 22.2389L23.9065 24.0609C23.754 24.4079 24.0983 24.6729 24.414 24.6178C24.8813 24.5362 25.4429 24.6578 25.6908 25.1016C26.0729 25.7853 25.4334 26.6339 24.6714 26.4559C24.2142 26.3489 23.9086 25.9174 23.9605 25.4521C23.9726 25.344 23.9413 25.2355 23.8734 25.1506C23.8055 25.0656 23.7067 25.0111 23.5986 24.999C23.3742 24.9739 23.1707 25.1359 23.1456 25.361C23.0475 26.2389 23.6231 27.0528 24.4847 27.2543C25.932 27.593 27.1329 26.0012 26.4066 24.7016C26.097 24.1474 25.5359 23.8584 24.9233 23.7852L25.3181 22.8872L26.5722 23.2074C26.6244 23.2207 26.6787 23.2236 26.732 23.216C26.7853 23.2083 26.8366 23.1903 26.8829 23.1628C26.9292 23.1353 26.9697 23.099 27.0019 23.0559C27.0342 23.0127 27.0576 22.9637 27.0709 22.9115C27.0843 22.8593 27.0872 22.8051 27.0796 22.7518C27.072 22.6985 27.0539 22.6472 27.0264 22.6009C26.999 22.5546 26.9627 22.5141 26.9195 22.4818C26.8764 22.4496 26.8274 22.4261 26.7752 22.4128Z" fill="black"/>
</svg>
