<svg width="40" height="40" viewBox="0 0 40 40" fill="none" xmlns="http://www.w3.org/2000/svg">
<rect width="40" height="40" rx="14" fill="#1ABC34"/>
<mask id="path-2-inside-1_321_2873" fill="white">
<path d="M30.3906 20.9996H9.39062C8.4917 21.0006 7.62988 21.3582 6.99424 21.9938C6.3586 22.6295 6.00104 23.4913 6 24.3902V31.3902C6.00104 32.2891 6.3586 33.1509 6.99424 33.7866C7.62988 34.4222 8.4917 34.7798 9.39062 34.7808H30.3906C31.2896 34.7798 32.1514 34.4222 32.787 33.7866C33.4226 33.1509 33.7802 32.2891 33.7812 31.3902V24.3902C33.7802 23.4913 33.4226 22.6295 32.787 21.9938C32.1514 21.3582 31.2896 21.0006 30.3906 20.9996ZM18.6796 24.9371L17.8046 31.0621C17.7825 31.2175 17.7131 31.3624 17.6058 31.4771C17.4986 31.5918 17.3586 31.6707 17.205 31.7032C17.0513 31.7357 16.8914 31.7201 16.7469 31.6587C16.6024 31.5972 16.4803 31.4928 16.3972 31.3596L14.8594 28.8964L13.3211 31.3574C13.238 31.4906 13.1159 31.595 12.9714 31.6565C12.8269 31.7179 12.667 31.7335 12.5133 31.701C12.3597 31.6685 12.2198 31.5896 12.1125 31.4749C12.0052 31.3602 11.9358 31.2153 11.9137 31.0599L11.0387 24.9349C11.0219 24.8342 11.0255 24.7312 11.0491 24.6319C11.0727 24.5327 11.1159 24.4391 11.1762 24.3568C11.2365 24.2745 11.3126 24.205 11.4002 24.1525C11.4877 24.1 11.5848 24.0656 11.6858 24.0512C11.7868 24.0368 11.8897 24.0427 11.9884 24.0686C12.0871 24.0946 12.1796 24.14 12.2606 24.2021C12.3415 24.2643 12.4091 24.3421 12.4595 24.4308C12.51 24.5195 12.5421 24.6174 12.5542 24.7188L13.133 28.7687L14.2097 27.0463C14.2785 26.9361 14.3742 26.8453 14.4878 26.7824C14.6014 26.7194 14.7291 26.6864 14.8589 26.6864C14.9888 26.6864 15.1165 26.7194 15.2301 26.7824C15.3437 26.8453 15.4394 26.9361 15.5082 27.0463L16.5849 28.7687L17.1637 24.7188C17.1757 24.6174 17.2079 24.5195 17.2583 24.4308C17.3088 24.3421 17.3764 24.2643 17.4573 24.2021C17.5382 24.14 17.6307 24.0946 17.7294 24.0686C17.8281 24.0427 17.931 24.0368 18.0321 24.0512C18.1331 24.0656 18.2302 24.1 18.3177 24.1525C18.4052 24.205 18.4814 24.2745 18.5417 24.3568C18.602 24.4391 18.6452 24.5327 18.6688 24.6319C18.6924 24.7312 18.6959 24.8342 18.6792 24.9349L18.6796 24.9371ZM21.75 30.9527C21.75 31.1558 21.6693 31.3505 21.5258 31.4941C21.3822 31.6377 21.1874 31.7183 20.9844 31.7183C20.7813 31.7183 20.5866 31.6377 20.443 31.4941C20.2994 31.3505 20.2188 31.1558 20.2188 30.9527V24.8277C20.2188 24.6246 20.2994 24.4299 20.443 24.2863C20.5866 24.1427 20.7813 24.0621 20.9844 24.0621C21.1874 24.0621 21.3822 24.1427 21.5258 24.2863C21.6693 24.4299 21.75 24.6246 21.75 24.8277V30.9527ZM28.75 30.9527C28.75 31.1181 28.6964 31.279 28.5972 31.4114C28.4981 31.5438 28.3588 31.6405 28.2001 31.6871C28.0414 31.7337 27.8719 31.7277 27.7169 31.6699C27.5619 31.6121 27.4298 31.5057 27.3404 31.3666L24.8125 27.4343V30.9527C24.8125 31.1558 24.7318 31.3505 24.5883 31.4941C24.4447 31.6377 24.2499 31.7183 24.0469 31.7183C23.8438 31.7183 23.6491 31.6377 23.5055 31.4941C23.3619 31.3505 23.2812 31.1558 23.2812 30.9527V24.8277C23.2813 24.6623 23.3349 24.5014 23.434 24.369C23.5332 24.2366 23.6725 24.1399 23.8312 24.0933C23.9899 24.0467 24.1594 24.0527 24.3144 24.1105C24.4693 24.1683 24.6014 24.2747 24.6909 24.4138L27.2188 28.3461V24.8277C27.2188 24.6246 27.2994 24.4299 27.443 24.2863C27.5866 24.1427 27.7813 24.0621 27.9844 24.0621C28.1874 24.0621 28.3822 24.1427 28.5258 24.2863C28.6693 24.4299 28.75 24.6246 28.75 24.8277V30.9527ZM24.0701 10.9764C23.266 10.7083 22.5353 10.2567 21.936 9.65737C21.3366 9.05801 20.885 8.32736 20.6169 7.52326C20.566 7.37087 20.4685 7.23835 20.3382 7.14444C20.2078 7.05053 20.0513 7 19.8906 7C19.73 7 19.5734 7.05053 19.4431 7.14444C19.3127 7.23835 19.2152 7.37087 19.1644 7.52326C18.8963 8.32736 18.4447 9.05801 17.8453 9.65737C17.2459 10.2567 16.5153 10.7083 15.7112 10.9764C15.5588 11.0273 15.4263 11.1248 15.3324 11.2551C15.2385 11.3855 15.1879 11.542 15.1879 11.7027C15.1879 11.8633 15.2385 12.0199 15.3324 12.1503C15.4263 12.2806 15.5588 12.3781 15.7112 12.4289C16.5153 12.6971 17.2459 13.1487 17.8453 13.748C18.4447 14.3474 18.8963 15.078 19.1644 15.8821C19.2152 16.0345 19.3127 16.167 19.4431 16.2609C19.5734 16.3549 19.73 16.4054 19.8906 16.4054C20.0513 16.4054 20.2078 16.3549 20.3382 16.2609C20.4685 16.167 20.566 16.0345 20.6169 15.8821C20.885 15.078 21.3366 14.3474 21.936 13.748C22.5353 13.1487 23.266 12.6971 24.0701 12.4289C24.2224 12.3781 24.355 12.2806 24.4489 12.1503C24.5428 12.0199 24.5933 11.8633 24.5933 11.7027C24.5933 11.542 24.5428 11.3855 24.4489 11.2551C24.355 11.1248 24.2224 11.0273 24.0701 10.9764ZM12.7419 12.3358C12.691 12.1834 12.5935 12.0508 12.4632 11.9569C12.3328 11.863 12.1763 11.8125 12.0156 11.8125C11.855 11.8125 11.6984 11.863 11.5681 11.9569C11.4377 12.0508 11.3402 12.1834 11.2894 12.3358C11.0893 12.9361 10.7521 13.4817 10.3046 13.9292C9.85712 14.3767 9.31157 14.7138 8.71119 14.9139C8.5588 14.9648 8.42628 15.0623 8.33237 15.1926C8.23846 15.323 8.18793 15.4795 8.18793 15.6402C8.18793 15.8008 8.23846 15.9574 8.33237 16.0878C8.42628 16.2181 8.5588 16.3156 8.71119 16.3664C9.31157 16.5665 9.85712 16.9037 10.3046 17.3512C10.7521 17.7987 11.0893 18.3442 11.2894 18.9446C11.3402 19.097 11.4377 19.2295 11.5681 19.3234C11.6984 19.4174 11.855 19.4679 12.0156 19.4679C12.1763 19.4679 12.3328 19.4174 12.4632 19.3234C12.5935 19.2295 12.691 19.097 12.7419 18.9446C12.942 18.3442 13.2791 17.7987 13.7266 17.3512C14.1741 16.9037 14.7197 16.5665 15.3201 16.3664C15.4724 16.3156 15.605 16.2181 15.6989 16.0878C15.7928 15.9574 15.8433 15.8008 15.8433 15.6402C15.8433 15.4795 15.7928 15.323 15.6989 15.1926C15.605 15.0623 15.4724 14.9648 15.3201 14.9139C14.7197 14.7138 14.1741 14.3767 13.7266 13.9292C13.2791 13.4817 12.942 12.9361 12.7419 12.3358ZM31.0701 14.9139C30.4697 14.7138 29.9241 14.3767 29.4766 13.9292C29.0291 13.4817 28.692 12.9361 28.4919 12.3358C28.441 12.1834 28.3435 12.0508 28.2132 11.9569C28.0828 11.863 27.9263 11.8125 27.7656 11.8125C27.605 11.8125 27.4484 11.863 27.3181 11.9569C27.1877 12.0508 27.0902 12.1834 27.0394 12.3358C26.8393 12.9361 26.5021 13.4817 26.0546 13.9292C25.6071 14.3767 25.0616 14.7138 24.4612 14.9139C24.3088 14.9648 24.1763 15.0623 24.0824 15.1926C23.9885 15.323 23.9379 15.4795 23.9379 15.6402C23.9379 15.8008 23.9885 15.9574 24.0824 16.0878C24.1763 16.2181 24.3088 16.3156 24.4612 16.3664C25.0616 16.5665 25.6071 16.9037 26.0546 17.3512C26.5021 17.7987 26.8393 18.3442 27.0394 18.9446C27.0902 19.097 27.1877 19.2295 27.3181 19.3234C27.4484 19.4174 27.605 19.4679 27.7656 19.4679C27.9263 19.4679 28.0828 19.4174 28.2132 19.3234C28.3435 19.2295 28.441 19.097 28.4919 18.9446C28.692 18.3442 29.0291 17.7987 29.4766 17.3512C29.9241 16.9037 30.4697 16.5665 31.0701 16.3664C31.2224 16.3156 31.355 16.2181 31.4489 16.0878C31.5428 15.9574 31.5933 15.8008 31.5933 15.6402C31.5933 15.4795 31.5428 15.323 31.4489 15.1926C31.355 15.0623 31.2224 14.9648 31.0701 14.9139Z"/>
</mask>
<path d="M30.3906 20.9996H9.39062C8.4917 21.0006 7.62988 21.3582 6.99424 21.9938C6.3586 22.6295 6.00104 23.4913 6 24.3902V31.3902C6.00104 32.2891 6.3586 33.1509 6.99424 33.7866C7.62988 34.4222 8.4917 34.7798 9.39062 34.7808H30.3906C31.2896 34.7798 32.1514 34.4222 32.787 33.7866C33.4226 33.1509 33.7802 32.2891 33.7812 31.3902V24.3902C33.7802 23.4913 33.4226 22.6295 32.787 21.9938C32.1514 21.3582 31.2896 21.0006 30.3906 20.9996ZM18.6796 24.9371L17.8046 31.0621C17.7825 31.2175 17.7131 31.3624 17.6058 31.4771C17.4986 31.5918 17.3586 31.6707 17.205 31.7032C17.0513 31.7357 16.8914 31.7201 16.7469 31.6587C16.6024 31.5972 16.4803 31.4928 16.3972 31.3596L14.8594 28.8964L13.3211 31.3574C13.238 31.4906 13.1159 31.595 12.9714 31.6565C12.8269 31.7179 12.667 31.7335 12.5133 31.701C12.3597 31.6685 12.2198 31.5896 12.1125 31.4749C12.0052 31.3602 11.9358 31.2153 11.9137 31.0599L11.0387 24.9349C11.0219 24.8342 11.0255 24.7312 11.0491 24.6319C11.0727 24.5327 11.1159 24.4391 11.1762 24.3568C11.2365 24.2745 11.3126 24.205 11.4002 24.1525C11.4877 24.1 11.5848 24.0656 11.6858 24.0512C11.7868 24.0368 11.8897 24.0427 11.9884 24.0686C12.0871 24.0946 12.1796 24.14 12.2606 24.2021C12.3415 24.2643 12.4091 24.3421 12.4595 24.4308C12.51 24.5195 12.5421 24.6174 12.5542 24.7188L13.133 28.7687L14.2097 27.0463C14.2785 26.9361 14.3742 26.8453 14.4878 26.7824C14.6014 26.7194 14.7291 26.6864 14.8589 26.6864C14.9888 26.6864 15.1165 26.7194 15.2301 26.7824C15.3437 26.8453 15.4394 26.9361 15.5082 27.0463L16.5849 28.7687L17.1637 24.7188C17.1757 24.6174 17.2079 24.5195 17.2583 24.4308C17.3088 24.3421 17.3764 24.2643 17.4573 24.2021C17.5382 24.14 17.6307 24.0946 17.7294 24.0686C17.8281 24.0427 17.931 24.0368 18.0321 24.0512C18.1331 24.0656 18.2302 24.1 18.3177 24.1525C18.4052 24.205 18.4814 24.2745 18.5417 24.3568C18.602 24.4391 18.6452 24.5327 18.6688 24.6319C18.6924 24.7312 18.6959 24.8342 18.6792 24.9349L18.6796 24.9371ZM21.75 30.9527C21.75 31.1558 21.6693 31.3505 21.5258 31.4941C21.3822 31.6377 21.1874 31.7183 20.9844 31.7183C20.7813 31.7183 20.5866 31.6377 20.443 31.4941C20.2994 31.3505 20.2188 31.1558 20.2188 30.9527V24.8277C20.2188 24.6246 20.2994 24.4299 20.443 24.2863C20.5866 24.1427 20.7813 24.0621 20.9844 24.0621C21.1874 24.0621 21.3822 24.1427 21.5258 24.2863C21.6693 24.4299 21.75 24.6246 21.75 24.8277V30.9527ZM28.75 30.9527C28.75 31.1181 28.6964 31.279 28.5972 31.4114C28.4981 31.5438 28.3588 31.6405 28.2001 31.6871C28.0414 31.7337 27.8719 31.7277 27.7169 31.6699C27.5619 31.6121 27.4298 31.5057 27.3404 31.3666L24.8125 27.4343V30.9527C24.8125 31.1558 24.7318 31.3505 24.5883 31.4941C24.4447 31.6377 24.2499 31.7183 24.0469 31.7183C23.8438 31.7183 23.6491 31.6377 23.5055 31.4941C23.3619 31.3505 23.2812 31.1558 23.2812 30.9527V24.8277C23.2813 24.6623 23.3349 24.5014 23.434 24.369C23.5332 24.2366 23.6725 24.1399 23.8312 24.0933C23.9899 24.0467 24.1594 24.0527 24.3144 24.1105C24.4693 24.1683 24.6014 24.2747 24.6909 24.4138L27.2188 28.3461V24.8277C27.2188 24.6246 27.2994 24.4299 27.443 24.2863C27.5866 24.1427 27.7813 24.0621 27.9844 24.0621C28.1874 24.0621 28.3822 24.1427 28.5258 24.2863C28.6693 24.4299 28.75 24.6246 28.75 24.8277V30.9527ZM24.0701 10.9764C23.266 10.7083 22.5353 10.2567 21.936 9.65737C21.3366 9.05801 20.885 8.32736 20.6169 7.52326C20.566 7.37087 20.4685 7.23835 20.3382 7.14444C20.2078 7.05053 20.0513 7 19.8906 7C19.73 7 19.5734 7.05053 19.4431 7.14444C19.3127 7.23835 19.2152 7.37087 19.1644 7.52326C18.8963 8.32736 18.4447 9.05801 17.8453 9.65737C17.2459 10.2567 16.5153 10.7083 15.7112 10.9764C15.5588 11.0273 15.4263 11.1248 15.3324 11.2551C15.2385 11.3855 15.1879 11.542 15.1879 11.7027C15.1879 11.8633 15.2385 12.0199 15.3324 12.1503C15.4263 12.2806 15.5588 12.3781 15.7112 12.4289C16.5153 12.6971 17.2459 13.1487 17.8453 13.748C18.4447 14.3474 18.8963 15.078 19.1644 15.8821C19.2152 16.0345 19.3127 16.167 19.4431 16.2609C19.5734 16.3549 19.73 16.4054 19.8906 16.4054C20.0513 16.4054 20.2078 16.3549 20.3382 16.2609C20.4685 16.167 20.566 16.0345 20.6169 15.8821C20.885 15.078 21.3366 14.3474 21.936 13.748C22.5353 13.1487 23.266 12.6971 24.0701 12.4289C24.2224 12.3781 24.355 12.2806 24.4489 12.1503C24.5428 12.0199 24.5933 11.8633 24.5933 11.7027C24.5933 11.542 24.5428 11.3855 24.4489 11.2551C24.355 11.1248 24.2224 11.0273 24.0701 10.9764ZM12.7419 12.3358C12.691 12.1834 12.5935 12.0508 12.4632 11.9569C12.3328 11.863 12.1763 11.8125 12.0156 11.8125C11.855 11.8125 11.6984 11.863 11.5681 11.9569C11.4377 12.0508 11.3402 12.1834 11.2894 12.3358C11.0893 12.9361 10.7521 13.4817 10.3046 13.9292C9.85712 14.3767 9.31157 14.7138 8.71119 14.9139C8.5588 14.9648 8.42628 15.0623 8.33237 15.1926C8.23846 15.323 8.18793 15.4795 8.18793 15.6402C8.18793 15.8008 8.23846 15.9574 8.33237 16.0878C8.42628 16.2181 8.5588 16.3156 8.71119 16.3664C9.31157 16.5665 9.85712 16.9037 10.3046 17.3512C10.7521 17.7987 11.0893 18.3442 11.2894 18.9446C11.3402 19.097 11.4377 19.2295 11.5681 19.3234C11.6984 19.4174 11.855 19.4679 12.0156 19.4679C12.1763 19.4679 12.3328 19.4174 12.4632 19.3234C12.5935 19.2295 12.691 19.097 12.7419 18.9446C12.942 18.3442 13.2791 17.7987 13.7266 17.3512C14.1741 16.9037 14.7197 16.5665 15.3201 16.3664C15.4724 16.3156 15.605 16.2181 15.6989 16.0878C15.7928 15.9574 15.8433 15.8008 15.8433 15.6402C15.8433 15.4795 15.7928 15.323 15.6989 15.1926C15.605 15.0623 15.4724 14.9648 15.3201 14.9139C14.7197 14.7138 14.1741 14.3767 13.7266 13.9292C13.2791 13.4817 12.942 12.9361 12.7419 12.3358ZM31.0701 14.9139C30.4697 14.7138 29.9241 14.3767 29.4766 13.9292C29.0291 13.4817 28.692 12.9361 28.4919 12.3358C28.441 12.1834 28.3435 12.0508 28.2132 11.9569C28.0828 11.863 27.9263 11.8125 27.7656 11.8125C27.605 11.8125 27.4484 11.863 27.3181 11.9569C27.1877 12.0508 27.0902 12.1834 27.0394 12.3358C26.8393 12.9361 26.5021 13.4817 26.0546 13.9292C25.6071 14.3767 25.0616 14.7138 24.4612 14.9139C24.3088 14.9648 24.1763 15.0623 24.0824 15.1926C23.9885 15.323 23.9379 15.4795 23.9379 15.6402C23.9379 15.8008 23.9885 15.9574 24.0824 16.0878C24.1763 16.2181 24.3088 16.3156 24.4612 16.3664C25.0616 16.5665 25.6071 16.9037 26.0546 17.3512C26.5021 17.7987 26.8393 18.3442 27.0394 18.9446C27.0902 19.097 27.1877 19.2295 27.3181 19.3234C27.4484 19.4174 27.605 19.4679 27.7656 19.4679C27.9263 19.4679 28.0828 19.4174 28.2132 19.3234C28.3435 19.2295 28.441 19.097 28.4919 18.9446C28.692 18.3442 29.0291 17.7987 29.4766 17.3512C29.9241 16.9037 30.4697 16.5665 31.0701 16.3664C31.2224 16.3156 31.355 16.2181 31.4489 16.0878C31.5428 15.9574 31.5933 15.8008 31.5933 15.6402C31.5933 15.4795 31.5428 15.323 31.4489 15.1926C31.355 15.0623 31.2224 14.9648 31.0701 14.9139Z" stroke="black" stroke-width="2" mask="url(#path-2-inside-1_321_2873)"/>
<path d="M18.6797 24.937L17.8047 31.062C17.7825 31.2175 17.7131 31.3624 17.6058 31.4771C17.4986 31.5917 17.3586 31.6707 17.205 31.7031C17.0514 31.7356 16.8915 31.7201 16.747 31.6586C16.6025 31.5971 16.4804 31.4927 16.3972 31.3595L14.8594 28.8964L13.3212 31.3573C13.238 31.4905 13.1159 31.5949 12.9714 31.6564C12.8269 31.7179 12.667 31.7334 12.5134 31.701C12.3597 31.6685 12.2198 31.5896 12.1125 31.4749C12.0053 31.3602 11.9359 31.2153 11.9137 31.0598L11.0387 24.9348C11.022 24.8342 11.0255 24.7312 11.0491 24.6319C11.0727 24.5326 11.1159 24.4391 11.1762 24.3567C11.2365 24.2744 11.3127 24.205 11.4002 24.1525C11.4877 24.1 11.5848 24.0655 11.6859 24.0511C11.7869 24.0367 11.8898 24.0427 11.9885 24.0686C12.0872 24.0945 12.1797 24.1399 12.2606 24.2021C12.3415 24.2643 12.4091 24.342 12.4596 24.4308C12.51 24.5195 12.5422 24.6174 12.5542 24.7187L13.133 28.7686L14.2097 27.0462C14.2785 26.9361 14.3742 26.8453 14.4878 26.7823C14.6014 26.7194 14.7291 26.6864 14.859 26.6864C14.9888 26.6864 15.1165 26.7194 15.2301 26.7823C15.3437 26.8453 15.4394 26.9361 15.5082 27.0462L16.5849 28.7686L17.1637 24.7187C17.1758 24.6174 17.2079 24.5195 17.2584 24.4308C17.3088 24.342 17.3764 24.2643 17.4574 24.2021C17.5383 24.1399 17.6308 24.0945 17.7295 24.0686C17.8282 24.0427 17.9311 24.0367 18.0321 24.0511C18.1331 24.0655 18.2302 24.1 18.3177 24.1525C18.4053 24.205 18.4814 24.2744 18.5417 24.3567C18.602 24.4391 18.6452 24.5326 18.6688 24.6319C18.6924 24.7312 18.696 24.8342 18.6792 24.9348L18.6797 24.937ZM21.75 30.9526C21.75 31.1557 21.6694 31.3504 21.5258 31.494C21.3822 31.6376 21.1875 31.7183 20.9844 31.7183C20.7813 31.7183 20.5866 31.6376 20.443 31.494C20.2994 31.3504 20.2188 31.1557 20.2188 30.9526V24.8276C20.2188 24.6246 20.2994 24.4298 20.443 24.2863C20.5866 24.1427 20.7813 24.062 20.9844 24.062C21.1875 24.062 21.3822 24.1427 21.5258 24.2863C21.6694 24.4298 21.75 24.6246 21.75 24.8276V30.9526ZM28.75 30.9526C28.75 31.118 28.6964 31.279 28.5973 31.4114C28.4981 31.5437 28.3588 31.6405 28.2001 31.6871C28.0414 31.7337 27.8719 31.7276 27.7169 31.6698C27.5619 31.612 27.4298 31.5056 27.3404 31.3665L24.8125 27.4343V30.9526C24.8125 31.1557 24.7319 31.3504 24.5883 31.494C24.4447 31.6376 24.25 31.7183 24.0469 31.7183C23.8438 31.7183 23.6491 31.6376 23.5055 31.494C23.3619 31.3504 23.2813 31.1557 23.2813 30.9526V24.8276C23.2813 24.6622 23.3349 24.5013 23.4341 24.3689C23.5332 24.2365 23.6725 24.1398 23.8312 24.0932C23.9899 24.0466 24.1594 24.0527 24.3144 24.1104C24.4694 24.1682 24.6015 24.2746 24.6909 24.4138L27.2188 28.346V24.8276C27.2188 24.6246 27.2994 24.4298 27.443 24.2863C27.5866 24.1427 27.7813 24.062 27.9844 24.062C28.1875 24.062 28.3822 24.1427 28.5258 24.2863C28.6694 24.4298 28.75 24.6246 28.75 24.8276V30.9526Z" fill="#D9D9D9"/>
</svg>
