<svg width="40" height="40" viewBox="0 0 40 40" fill="none" xmlns="http://www.w3.org/2000/svg">
<rect width="40" height="40" rx="14" fill="#0094FF"/>
<path d="M26.3887 15.4294C26.4204 15.4774 26.4612 15.5186 26.5089 15.5507C26.5566 15.5828 26.6101 15.6052 26.6664 15.6166C26.7228 15.628 26.7808 15.6281 26.8372 15.617C26.8936 15.6059 26.9472 15.5838 26.995 15.5519C27.0917 15.4878 27.1589 15.3878 27.1819 15.2741C27.2048 15.1604 27.1817 15.0422 27.1175 14.9456C26.5241 14.0485 25.7609 13.2761 24.871 12.6719C24.8235 12.6396 24.7701 12.6169 24.7139 12.6052C24.6576 12.5935 24.5997 12.593 24.5432 12.6038C24.4868 12.6145 24.433 12.6362 24.385 12.6677C24.337 12.6992 24.2956 12.7399 24.2633 12.7874C24.231 12.8349 24.2083 12.8882 24.1966 12.9445C24.185 13.0007 24.1845 13.0587 24.1952 13.1151C24.2059 13.1716 24.2277 13.2253 24.2592 13.2734C24.2907 13.3214 24.3313 13.3627 24.3788 13.3951C25.1751 13.9356 25.8578 14.6267 26.3887 15.4294ZM27.6089 19.4837C27.6089 20.9052 27.2064 22.2829 26.4447 23.4681C26.3828 23.5656 26.362 23.6837 26.3868 23.7966C26.4117 23.9095 26.4802 24.0079 26.5774 24.0704C26.6746 24.1329 26.7926 24.1545 26.9056 24.1303C27.0186 24.1061 27.1174 24.0382 27.1805 23.9414C28.0342 22.6117 28.4866 21.0643 28.4839 19.4842C28.4844 18.6457 28.3567 17.8121 28.105 17.0123C28.0701 16.9016 27.9927 16.8093 27.8898 16.7557C27.7868 16.7021 27.6668 16.6915 27.5561 16.7264C27.4454 16.7613 27.3531 16.8387 27.2995 16.9416C27.2459 17.0445 27.2354 17.1645 27.2702 17.2752C27.4951 17.9871 27.6089 18.7299 27.6089 19.4837Z" fill="black"/>
<path d="M12.7666 8.86694C12.6179 8.57031 12.1327 8.57031 11.984 8.86694L10.8823 11.0698L8.67952 12.1714C8.60657 12.2075 8.54515 12.2632 8.50221 12.3324C8.45928 12.4015 8.43652 12.4813 8.43652 12.5627C8.43652 12.6441 8.45928 12.7239 8.50221 12.793C8.54515 12.8622 8.60657 12.918 8.67952 12.9541L10.86 14.0443C9.89789 15.6956 9.39108 17.5726 9.39133 19.4837C9.39133 23.0349 11.0963 26.293 13.9256 28.3125H13.2501C12.0439 28.3125 11.0626 29.2938 11.0626 30.5V30.9375C10.339 30.9375 9.75008 31.5264 9.75008 32.25V33.5625C9.75008 33.6785 9.79618 33.7898 9.87822 33.8719C9.96027 33.9539 10.0716 34 10.1876 34H30.3126C30.4286 34 30.5399 33.9539 30.6219 33.8719C30.704 33.7898 30.7501 33.6785 30.7501 33.5625V32.25C30.7501 31.5264 30.1612 30.9375 29.4376 30.9375V30.5C29.4376 29.2938 28.4563 28.3125 27.2501 28.3125H26.575C29.4043 26.2926 31.1093 23.0349 31.1093 19.4837C31.1088 13.4961 26.2377 8.625 20.2501 8.625C17.8994 8.625 15.6095 9.40331 13.7379 10.8099L12.7666 8.86694ZM11.4038 11.7872C11.4883 11.7448 11.5574 11.6761 11.5994 11.5917L12.3751 10.0408L13.1503 11.5917C13.1928 11.6761 13.2615 11.7452 13.3459 11.7872L14.8968 12.5625L13.3463 13.3377C13.2618 13.3801 13.1931 13.4487 13.1508 13.5333L12.3751 15.0842L11.5998 13.5333C11.5575 13.4487 11.4889 13.3801 11.4043 13.3377L9.85333 12.5625L11.4038 11.7872ZM29.8751 32.25V33.125H10.6251V32.25C10.6251 32.0089 10.8211 31.8125 11.0626 31.8125H29.4376C29.6791 31.8125 29.8751 32.0089 29.8751 32.25ZM28.5626 30.5V30.9375H11.9376V30.5C11.9376 29.7764 12.5265 29.1875 13.2501 29.1875H27.2501C27.9737 29.1875 28.5626 29.7764 28.5626 30.5ZM30.2338 19.4837C30.2338 23.2073 28.1951 26.5796 24.9095 28.3125H15.5907C13.981 27.4681 12.6336 26.1986 11.6949 24.6421C10.7562 23.0855 10.2621 21.3014 10.2663 19.4837C10.2663 17.9083 10.6391 16.3674 11.3443 14.9788L11.984 16.2581C12.0201 16.331 12.0758 16.3924 12.145 16.4354C12.2141 16.4783 12.2939 16.5011 12.3753 16.5011C12.4567 16.5011 12.5365 16.4783 12.6056 16.4354C12.6748 16.3924 12.7306 16.331 12.7666 16.2581L13.8683 14.0553L16.0711 12.9536C16.1438 12.9173 16.2049 12.8614 16.2475 12.7922C16.2902 12.7231 16.3128 12.6434 16.3128 12.5621C16.3127 12.4809 16.2901 12.4012 16.2473 12.3321C16.2045 12.263 16.1434 12.2072 16.0706 12.1709L14.4558 11.3633C16.1465 10.1547 18.1719 9.50338 20.2501 9.5C25.7551 9.5 30.2338 13.9787 30.2338 19.4837Z" fill="black"/>
<path d="M29.875 32.25V33.125H10.625V32.25C10.625 32.0089 10.821 31.8125 11.0625 31.8125H29.4375C29.679 31.8125 29.875 32.0089 29.875 32.25ZM28.5625 30.5V30.9375H11.9375V30.5C11.9375 29.7764 12.5264 29.1875 13.25 29.1875H27.25C27.9736 29.1875 28.5625 29.7764 28.5625 30.5Z" fill="white"/>
<path d="M11.4038 11.7872C11.4883 11.7448 11.5574 11.6761 11.5994 11.5916L12.3751 10.0407L13.1503 11.5916C13.1928 11.6761 13.2615 11.7452 13.3459 11.7872L14.8968 12.5624L13.3463 13.3377C13.2618 13.3801 13.1931 13.4487 13.1508 13.5333L12.3751 15.0842L11.5998 13.5333C11.5575 13.4487 11.4889 13.3801 11.4043 13.3377L9.85333 12.5624L11.4038 11.7872Z" fill="white"/>
<path d="M17.5104 13.8001C17.5748 13.7677 17.6274 13.7153 17.6594 13.6508L18.2503 12.4664L18.8409 13.6508C18.8732 13.7153 18.9256 13.7681 18.9899 13.8001L20.1714 14.3922L18.9902 14.9842C18.9258 15.0166 18.8735 15.069 18.8412 15.1336L18.2503 16.318L17.6598 15.1336C17.6275 15.069 17.5752 15.0166 17.5108 14.9842L16.3293 14.3922L17.5104 13.8001Z" fill="white"/>
<path d="M15.4375 14.3125C15.4375 14.4783 15.5311 14.6297 15.6794 14.7041L17.0072 15.3682L17.6714 16.696C17.7077 16.7687 17.7636 16.8298 17.8328 16.8725C17.9019 16.9151 17.9816 16.9377 18.0629 16.9377C18.1441 16.9376 18.2238 16.915 18.2929 16.8722C18.362 16.8294 18.4178 16.7683 18.4541 16.6956L19.1182 15.3678L20.446 14.7036C20.5187 14.6673 20.5798 14.6114 20.6225 14.5422C20.6651 14.4731 20.6877 14.3934 20.6877 14.3121C20.6876 14.2309 20.665 14.1512 20.6222 14.0821C20.5794 14.013 20.5183 13.9572 20.4456 13.9209L19.1178 13.2568L18.4536 11.929C18.3049 11.6324 17.8197 11.6324 17.6709 11.929L17.0068 13.2568L15.679 13.9209C15.5311 13.9953 15.4375 14.1467 15.4375 14.3125ZM17.5288 13.9748C17.6132 13.9323 17.6823 13.8636 17.7243 13.7792L18.0625 13.1033L18.4002 13.7792C18.4427 13.8636 18.5114 13.9328 18.5958 13.9748L19.2717 14.3125L18.5962 14.6502C18.5117 14.6926 18.4431 14.7612 18.4007 14.8458L18.0625 15.5217L17.7248 14.8458C17.6824 14.7612 17.6138 14.6926 17.5292 14.6502L16.8533 14.3125L17.5288 13.9748ZM15.875 16.9375H15.4375V16.5C15.4375 16.384 15.3914 16.2727 15.3094 16.1906C15.2273 16.1086 15.116 16.0625 15 16.0625C14.884 16.0625 14.7727 16.1086 14.6906 16.1906C14.6086 16.2727 14.5625 16.384 14.5625 16.5V16.9375H14.125C14.009 16.9375 13.8977 16.9836 13.8156 17.0656C13.7336 17.1477 13.6875 17.259 13.6875 17.375C13.6875 17.491 13.7336 17.6023 13.8156 17.6844C13.8977 17.7664 14.009 17.8125 14.125 17.8125H14.5625V18.25C14.5625 18.366 14.6086 18.4773 14.6906 18.5594C14.7727 18.6414 14.884 18.6875 15 18.6875C15.116 18.6875 15.2273 18.6414 15.3094 18.5594C15.3914 18.4773 15.4375 18.366 15.4375 18.25V17.8125H15.875C15.991 17.8125 16.1023 17.7664 16.1844 17.6844C16.2664 17.6023 16.3125 17.491 16.3125 17.375C16.3125 17.259 16.2664 17.1477 16.1844 17.0656C16.1023 16.9836 15.991 16.9375 15.875 16.9375ZM15.4375 6C15.3215 6 15.2102 6.04609 15.1281 6.12814C15.0461 6.21019 15 6.32147 15 6.4375V6.875H14.5625C14.4465 6.875 14.3352 6.92109 14.2531 7.00314C14.1711 7.08519 14.125 7.19647 14.125 7.3125C14.125 7.42853 14.1711 7.53981 14.2531 7.62186C14.3352 7.70391 14.4465 7.75 14.5625 7.75H15V8.1875C15 8.30353 15.0461 8.41481 15.1281 8.49686C15.2102 8.57891 15.3215 8.625 15.4375 8.625C15.5535 8.625 15.6648 8.57891 15.7469 8.49686C15.8289 8.41481 15.875 8.30353 15.875 8.1875V7.75H16.3125C16.4285 7.75 16.5398 7.70391 16.6219 7.62186C16.7039 7.53981 16.75 7.42853 16.75 7.3125C16.75 7.19647 16.7039 7.08519 16.6219 7.00314C16.5398 6.92109 16.4285 6.875 16.3125 6.875H15.875V6.4375C15.875 6.32147 15.8289 6.21019 15.7469 6.12814C15.6648 6.04609 15.5535 6 15.4375 6ZM9.3125 6.875C9.19647 6.875 9.08519 6.92109 9.00314 7.00314C8.92109 7.08519 8.875 7.19647 8.875 7.3125V7.75H8.4375C8.32147 7.75 8.21019 7.79609 8.12814 7.87814C8.04609 7.96019 8 8.07147 8 8.1875C8 8.30353 8.04609 8.41481 8.12814 8.49686C8.21019 8.57891 8.32147 8.625 8.4375 8.625H8.875V9.0625C8.875 9.17853 8.92109 9.28981 9.00314 9.37186C9.08519 9.45391 9.19647 9.5 9.3125 9.5C9.42853 9.5 9.53981 9.45391 9.62186 9.37186C9.70391 9.28981 9.75 9.17853 9.75 9.0625V8.625H10.1875C10.3035 8.625 10.4148 8.57891 10.4969 8.49686C10.5789 8.41481 10.625 8.30353 10.625 8.1875C10.625 8.07147 10.5789 7.96019 10.4969 7.87814C10.4148 7.79609 10.3035 7.75 10.1875 7.75H9.75V7.3125C9.75 7.19647 9.70391 7.08519 9.62186 7.00314C9.53981 6.92109 9.42853 6.875 9.3125 6.875Z" fill="black"/>
</svg>
